<svg xmlns="http://www.w3.org/2000/svg" height="800" width="1200" viewBox="-48.95265 -55.86075 424.2563 335.1645"><path d="M49.78 74.835s-6.264-12.964 7.709-23.047c13.973-10.083 38.306-24.728 69.865-35.531C162.301 4.294 193.377-1.053 216.734.17c18.31.96 19.755 14.885 19.755 14.885s73.238 1.2 87.21 42.494c13.974 41.293-31.078 78.985-46.978 91.23 0 0 4.577 12.963-5.3 20.886-9.878 7.922-42.401 28.57-73.72 37.932-31.319 9.363-50.592 15.847-86.006 15.845-18.792 0-21.924-13.444-21.924-15.605 0 0-78.46-.72-88.656-47.055-9.654-43.877 46.497-84.507 48.665-85.948" fill="#4f2400"/><path d="M52.6 75.578S46.487 62.878 60.128 53c13.64-9.877 37.395-24.224 68.204-34.807 34.115-11.72 64.452-16.958 87.253-15.758 17.874.941 19.286 14.582 19.286 14.582s71.496 1.176 85.136 41.628c13.641 40.451-30.338 77.376-45.86 89.37 0 0 4.468 12.7-5.175 20.461-9.642 7.761-41.393 27.987-71.966 37.16-30.574 9.172-49.389 15.523-83.961 15.522-18.345-.001-21.402-13.17-21.402-15.287 0 0-76.596-.706-86.548-46.096-9.425-42.984 45.39-82.786 47.507-84.197" fill="#d28816"/><path d="M308.292 64.444c13.29 40.86-40.784 95.078-120.783 121.1-79.997 26.022-155.622 13.995-168.913-26.866C5.305 117.82 59.382 63.602 139.378 37.58 219.375 11.558 295 23.586 308.292 64.444" fill="#fff"/><path d="M138.938 36.427C58.15 62.706 3.599 117.65 17.098 159.145c13.497 41.497 89.933 53.832 170.721 27.552 80.79-26.28 135.34-81.223 121.842-122.72-13.5-41.495-89.934-53.83-170.723-27.55zm166.121 29.342c12.948 39.804-39.802 92.645-117.821 118.024-78.019 25.378-151.762 13.685-164.71-26.12C9.582 117.87 62.333 65.029 140.35 39.65c78.019-25.379 151.762-13.685 164.71 26.118" fill="#4f2400"/><path d="M148.496 100.125c.348.18.864-.278.46-.998-.39-.697-1.228-.92-2.533-.92s-6.524 2.379-6.448 6.294c.077 3.914 3.915 4.375 6.064 3.684 2.15-.69 1.536.69.768.998-.768.307-10.517 5.533-10.9 14.968-.23 5.68 5.273 5.76 7.216 5.834 3.991.154 11.205-3.155 11.053-11.053-.076-3.992-2.993-3.992-3.838-3.992-.844 0-9.442 1.766-8.29 8.06 0 0 .23.077.384-.768.153-.844 1.473-4.513 5.22-4.452 2.072.034 2.686 1.382 2.686 2.917s-.921 6.367-6.678 6.367c-1.996 0-4.913-1.377-4.759-5.062.153-3.684 5.124-11.193 13.136-11.898 7.85-.69 8.432 5.828 8.433 7.907.005 8.597-7.995 19.453-23.412 20.283-7.737.417-11.283-6.083-10.592-11.686.556-4.511 5.506-11.398 9.057-13.203 1.367-.695.937-1.139.328-1.202-2.477-.257-2.728-4.184-2.58-5.874.384-4.375 2.713-6.741 6.013-8.66 3.301-1.919 6.142-2.303 7.753-2.303.998 0 4.714-.002 4.913 3.685.154 2.84-2.38 7.138-6.064 7.215-1.151.024-2.723-1.21-2.686-2.61.076-2.917 2.929-4.754 5.296-3.53" fill="#f15d22"/><path d="M147.862 93.15s6.37.244 7.105 5.144c.735 4.9-3.92 9.554-3.92 9.554s10.26-2.969 12.27 8.545c2.009 11.514-8.595 18.649-8.595 18.649l3.43 17.394c1.225 6.124 7.594 3.92 7.594 3.92l13.964-4.9c-3.92-1.226-2.205-5.88-2.205-5.88s15.924-43.362 16.904-46.057c.98-2.695 2.236.735 2.236.735l5.849 36.258c.98 7.105 8.084 5.634 8.084 5.634l16.17-5.634c-5.145-1.47-1.716-9.025-1.716-9.025s26.458-80.212 27.5-84.56c1.408-5.88-5.451-5.88-5.451-5.88l-9.8 3.43c3.92.98 2.45 6.615 2.45 6.615s-17.884 52.917-18.619 54.632c-.735 1.715-1.714-1.47-1.714-1.47s-6.37-38.953-7.84-44.587c-1.47-5.635-7.35-4.655-7.35-4.655l-12.249 3.92c2.94.735 1.96 6.614 1.96 6.614s-17.149 52.672-18.02 53.897c-.871 1.225-1.824 0-1.824 0s-6.614-38.953-8.084-45.322c-1.47-6.37-6.86-4.41-6.86-4.41l-18.373 6.125c6.124 2.94 7.104 21.313 7.104 21.313zm-51.937 45.567l17.64-5.635-4.675-31.358zm1.96-52.917l22.784-7.595s4.165-1.96 5.88 3.797c1.714 5.758 4.654 21.682 4.654 21.682s-1.225 8.084 1.225 9.799c0 0-11.024 8.574-8.574 18.129 2.45 9.554 13.719 10.044 13.719 10.044l1.96 12.495s1.714 7.84 6.124 8.819l-18.129 5.635s-7.35 3.429-8.574-3.92c-1.225-7.35-3.43-20.824-3.43-20.824l-23.519 8.085-7.349 22.048s-1.96 6.615 2.205 7.84l-7.595 2.694s-8.82 2.94-6.86-7.104l28.174-82.56s1.96-6.124-2.695-9.064" fill="#4f2400"/><path d="M253.736 37.295c-2.728-2.216-6.205-2.84-6.657-2.84-.257 0-.514.044-.757.13l-9.799 3.43a2.292 2.292 0 00.201 4.388c.377.094.534.248.655.448.505.845.323 2.548.148 3.3l-.435 1.287-.36 1.06c-14.068-5.125-33.199-7.484-58.542-5.61-60.442 4.468-122.06 45.69-129.822 52.478 0 0 34.572-38.368 104.187-56.712 67.52-17.792 137.583-6.82 146.99 28.356 11.153 41.703-38.619 77.152-82.997 92.877-11.857 4.202-27.54 8.59-27.54 8.59s33.162-11.76 50.33-27.518c17.169-15.757 35.278-36.218 29.634-59.736-2.334-9.724-7.505-18.363-17.597-25.255 0 0 6.638-15.198 2.361-18.673" fill="#4f2400"/><path d="M148.557 181.055c-27.27 2.016-46.037-.782-60.975-6.545l-.308.853c-.078.31-1.498 3.462.233 3.972a2.293 2.293 0 01.12 4.36l-7.595 2.695-.042.015c-.16.053-1.606.518-3.346.518-2.25 0-4.077-.774-5.283-2.239-1.485-1.802-1.89-4.492-1.206-7.999.02-.102.047-.202.08-.3l3.323-9.74c-8.65-6.643-13.634-14.974-15.783-23.925-5.644-23.518 11.39-42.988 28.56-58.745 17.168-15.758 51.403-28.508 51.403-28.508s-15.828 3.997-27.539 8.588C62.21 82.87 15.758 114.087 26.911 155.79c9.407 35.177 79.762 47.292 147.281 29.5 69.615-18.345 104.187-56.712 104.187-56.712-7.761 6.787-69.38 48.01-129.822 52.478" fill="#f15d22"/><path d="M84.048 51.327l.04.083c.309.632.891.595 2.305-.148l.976-.512c1.155-.608 1.518-.992 1.28-1.481l-.187-.381c-.244-.5-.777-.31-1.867.173l-3.246 1.45c-2.425 1.08-3.798.933-4.496-.497l-.262-.536c-.395-.81-.27-1.685.348-2.519.633-.856 1.7-1.491 3.273-2.318l2.33-1.224c2.928-1.538 4.822-1.605 5.455-.306l.291.596-3.724 1.956-.047-.095c-.255-.524-.695-.503-1.75.052l-.897.47c-1.135.597-1.555.967-1.328 1.432l.174.357c.233.477.788.23 1.858-.242l2.961-1.316c2.551-1.13 4.103-1.078 4.714.173l.407.834c.692 1.418-.417 3.198-2.966 4.537l-3.167 1.664c-3.325 1.747-5.153 1.9-5.91.35l-.29-.596 3.725-1.956m7.997-11.679l3.938-1.883 4.123 8.87-3.938 1.883-4.123-8.87m7.293-3.527l5.912-2.513 7.37 4.767-2.763-6.725 3.792-1.612 3.72 9.054-5.911 2.513-7.396-4.83 2.788 6.789-3.792 1.611-3.72-9.054m32.037-5.93c.857 2.427-.44 4.008-4.345 5.445l-1.372.504c-4.342 1.598-6.134 1.11-7.107-1.647l-.677-1.918c-.973-2.757.102-4.3 4.445-5.897l1.121-.413c4.24-1.56 5.994-1.243 6.863 1.221l.063.178-4.03 1.483-.059-.166c-.305-.863-1.01-.934-2.548-.368-1.995.733-2.029 1.234-1.545 2.606l.538 1.524c.484 1.372.82 1.722 2.814.988 1.6-.588 2.053-1.099 1.708-2.077l-.076-.216 4.114-1.513.094.266m.67-6.879l11.498-3.712.642 2.087-7.392 2.387.498 1.623 7.181-2.318.555 1.804-7.182 2.318.543 1.765 7.56-2.44.641 2.087-11.666 3.766-2.878-9.367m25.693-7.734l4.594-1.222 2.378 9.515-3.91 1.04-1.77-7.08-1.617 1.458-1.587-1.85 1.912-1.861m11.678-1.028c-1.463.343-1.741.52-1.603 1.152l.154.712c.14.646.46.655 1.923.313l.86-.202c1.4-.327 1.748-.492 1.607-1.138l-.155-.712c-.14-.646-.548-.648-1.925-.326zm-.276 5.484l.026.119c.123.567.475.623 1.55.371l1.034-.242c1.333-.312 1.566-.491 1.411-1.203l-.365-1.675c-.537.542-1.31.944-2.429 1.206l-1.527.358c-2.926.685-4.401.143-4.783-1.61l-.19-.87c-.367-1.689 1.192-2.94 4.657-3.752l1.85-.433c4.002-.937 5.449-.111 6.06 2.697l.433 1.991c.614 2.822-.374 4.204-4.354 5.136l-1.851.433c-3.206.75-5.002.395-5.309-1.016l-.13-.593 3.917-.917m9.892-9.436l4.656-.936 1.776 9.653-3.963.796-1.321-7.183-1.498 1.241-1.647-1.867 1.997-1.704m12.08-.209c-1.482.243-1.77.4-1.676 1.042l.107.722c.097.655.414.684 1.895.44l.871-.143c1.417-.234 1.775-.375 1.678-1.03l-.107-.721c-.097-.655-.503-.684-1.897-.454zm-.642 5.458l.017.12c.085.575.432.655 1.521.475l1.046-.172c1.35-.222 1.594-.386 1.487-1.108l-.251-1.697c-.573.505-1.369.855-2.502 1.042l-1.546.255c-2.962.488-4.396-.152-4.66-1.93l-.13-.881c-.253-1.71 1.384-2.857 4.891-3.435l1.874-.309c4.051-.667 5.438.254 5.86 3.101l.298 2.018c.423 2.86-.654 4.174-4.684 4.838l-1.873.308c-3.246.535-5.012.06-5.224-1.37l-.09-.601 3.966-.654M131.353 210.61c1.434-.211 1.876-.514 1.741-1.376l-.06-.384c-.134-.863-.651-1.04-2.085-.83l-2.482.364.404 2.59zm-7.672-3.794l6.67-.978c4.645-.68 6.752-.457 7.097 1.748l.126.808c.21 1.343-.764 2.27-2.855 2.744 2.265-.107 3.342.38 3.537 1.626l.32 2.054-4.53.665-.28-1.794c-.135-.863-.651-1.04-2.086-.83l-2.458.361.453 2.904-4.44.65-1.554-9.958m20.409 2.653c.325 1.504.638 1.866 2.87 1.414l.81-.164c2.232-.452 2.392-.909 2.067-2.413l-.35-1.628c-.326-1.504-.664-1.874-2.895-1.423l-.812.164c-2.231.452-2.366.918-2.041 2.423zm.514-6.23l2.164-.439c4.71-.953 6.522-.188 7.157 2.754l.442 2.046c.634 2.943-.709 4.346-5.42 5.3l-2.164.438c-4.71.954-6.5.184-7.135-2.758l-.44-2.047c-.636-2.942.685-4.341 5.396-5.295m15.699 2.687c.399 1.488.73 1.834 2.935 1.28l.803-.202c2.206-.554 2.344-1.018 1.945-2.506l-.431-1.61c-.399-1.487-.756-1.842-2.962-1.287l-.802.2c-2.207.556-2.318 1.027-1.92 2.516zm.205-6.249l2.14-.537c4.657-1.17 6.504-.49 7.284 2.42l.543 2.025c.78 2.91-.493 4.375-5.151 5.544l-2.14.537c-4.658 1.17-6.483.484-7.262-2.426l-.543-2.024c-.78-2.91.47-4.37 5.129-5.539m14.058-1.296l-4.123 1.205-.67-2.148 12.567-3.674.67 2.148-4.101 1.2 2.337 7.491-4.343 1.27-2.337-7.492m28.569-3.36l3.121-1.148c.925-.34 1.258-.685 1.065-1.177l-.153-.388c-.193-.491-.678-.536-1.604-.195l-3.12 1.148zm-1.399-3.56l2.97-1.092c.883-.325 1.178-.64.995-1.107l-.147-.375c-.184-.466-.62-.513-1.503-.188l-2.97 1.093zm1.712-4.925c3.701-1.362 5.46-1.402 6.11.256l.24.608c.416 1.061-.205 1.927-1.94 2.713 1.959-.468 3.288-.158 3.675.826l.219.557c.752 1.916-.733 3.026-4.716 4.49l-7.253 2.668-3.696-9.41 7.361-2.708m7.32-2.749l11.555-4.794.914 2.061-7.428 3.083.71 1.603 7.217-2.994.79 1.782-7.217 2.995.773 1.743 7.597-3.152.914 2.061-11.723 4.865-4.102-9.253m13.566-5.678l11.316-5.309 1.01 2.019-7.273 3.413.787 1.57 7.067-3.315.874 1.744-7.067 3.315.856 1.707 7.44-3.49 1.01 2.018-11.479 5.387-4.54-9.06m21.818-5.324c1.266-.685 1.57-1.12 1.13-1.88l-.197-.34c-.44-.76-.988-.75-2.254-.064l-2.19 1.186 1.32 2.284zm-8.562-.935l5.888-3.187c4.1-2.219 6.155-2.727 7.28-.782l.412.713c.684 1.184.11 2.383-1.675 3.54 2.081-.873 3.267-.785 3.904.315l1.047 1.813-4 2.164-.914-1.583c-.44-.762-.988-.75-2.254-.065l-2.17 1.174 1.48 2.563-3.919 2.12-5.08-8.785" fill="#4f2400"/><path d="M100.344 134.598l5.472-1.748 3.816-10.887-1.45-9.728-7.838 22.363m-1.92 21.441l15.923-5.474-.648-3.951-19.127 6.575a2.253 2.253 0 00-.14.324l-7.35 22.05a14.726 14.726 0 00-.495 2.53c.127.606.4 1.089.92 1.242a2.293 2.293 0 01.12 4.36l-7.595 2.695-.042.015c-.16.053-1.606.518-3.346.518a9.07 9.07 0 01-.988-.059c.097.142.199.28.308.412 1.206 1.465 3.033 2.239 5.284 2.239 1.74 0 3.186-.465 3.345-.518l.042-.015 7.595-2.694a2.293 2.293 0 00-.12-4.361c-1.731-.51-.736-4.66-.658-4.97l6.972-20.918m52.332 6.985c-2.213-.491-3.885-4.895-4.361-7.356l-1.845-11.764c.025.166 3.356-.629 4.456-.984.247-.08 4.404-2.035 4.398-1.773-.003.114-.163-3.803-.532-4.93-.01-.03-3.37 3.192-12.991 5.068l1.904 12.138c.483 2.114 2.155 6.518 4.368 7.01a2.293 2.293 0 01.183 4.428l-18.002 5.595c-.565.242-2.37.942-4.43.942-.352 0-.691-.027-1.023-.067 1.283 1.722 3.212 2.659 5.627 2.659 2.059 0 3.864-.7 4.429-.942l18.002-5.596a2.292 2.292 0 00-.183-4.428m34.24-11.464c-.61-.19-.744-.458-.8-.572-.336-.666-.099-1.866.064-2.328l12.448-33.907-1.492-9.248c-4.26 11.616-15.13 41.214-15.26 41.571a8.556 8.556 0 00-.354 1.34c.063.122.211.37.791.552a2.293 2.293 0 01.075 4.352l-13.964 4.9c-.16.056-1.54.516-3.263.516-.428 0-.839-.032-1.237-.086 1.316 1.73 3.321 2.678 5.84 2.678 1.724 0 3.102-.46 3.263-.516l13.964-4.9a2.293 2.293 0 00-.075-4.353m-48.983-55.32c-.121-.656-1.139-6.793-2.869-12.601-1.432-4.808-4.525-5.647-6.112-5.746.586.792 1.112 1.82 1.51 3.154 1.73 5.808 3.885 18.089 4.006 18.744m99.264 30.708c1.081-3.278 26.5-80.353 27.552-84.743.694-2.896-.175-4.79-1.025-5.868-1.268-1.608-3.164-2.305-4.616-2.608l.013.016c.82 1.04 1.836 2.94 1.272 5.664.029.452-.266.897-.458 1.698-.804 3.361-17.907 56.556-27.058 84.297-.227.522-.89 2.168-1.155 4.113.025.077.051.154.084.224.118.253.323.537.954.717a2.293 2.293 0 01.125 4.37l-16.168 5.634c-.095.033-.192.06-.29.08-.14.03-.893.174-1.96.174-.755 0-1.467-.077-2.144-.212 1.567 1.802 3.884 2.804 6.748 2.804 1.066 0 1.819-.144 1.959-.173.098-.021.195-.048.29-.08l16.168-5.635a2.294 2.294 0 00-.124-4.37c-.632-.18-.837-.464-.955-.717-.62-1.332.204-4.053.698-5.156.034-.074.064-.15.09-.23m-63.588-61.191c1.162 5.036 5.397 29.583 7.246 40.386a1000.43 1000.43 0 002.757-8.13c-2.011-11.604-4.542-25.947-5.4-29.664-1.142-4.95-4.317-6.157-6.315-6.41.718.922 1.33 2.16 1.712 3.818m45.552-14.517c1.19 4.567 5.405 29.78 7.139 40.27.764-2.223 1.72-5.02 2.803-8.197-1.956-11.619-4.464-26.125-5.34-29.48-.874-3.352-3.24-5.573-6.492-6.229.868.986 1.517 2.206 1.89 3.636" fill="#d28816"/></svg>